<!-- icon666.com - MILLIONS vector ICONS FREE --><svg viewBox="0 0 48 48" xmlns="http://www.w3.org/2000/svg"><g id="Night_Mode" data-name="Night Mode"><path d="m29.0127 1.0972a1.9482 1.9482 0 0 0 -2.269.84 2.0235 2.0235 0 0 0 .2544 2.5044 18.6045 18.6045 0 0 1 5.1255 13.833c-.4146 9.21-7.4 16.72-16.25 17.4678a17.1776 17.1776 0 0 1 -9.9014-2.1455 1.9587 1.9587 0 0 0 -2.4146.3706 1.9985 1.9985 0 0 0 -.2319 2.4825 22.35 22.35 0 0 0 18.9443 10.55q.605 0 1.2158-.0327c11.2896-.6001 20.5042-9.8213 21.4342-21.4487a23.3641 23.3641 0 0 0 -15.9073-24.4214z"></path></g></svg>