<!-- icon666.com - MILLIONS vector ICONS FREE --><svg viewBox="0 0 512 512" xmlns="http://www.w3.org/2000/svg"><g id="_10_Add" data-name="10 Add"><path d="m437 75a256 256 0 0 0 -362 362 256.36 256.36 0 0 0 254.66 64.22 25 25 0 0 0 -14.37-47.89 206.12 206.12 0 0 1 -59.29 8.67c-113.59 0-206-92.41-206-206s92.41-206 206-206 206 92.41 206 206a205.07 205.07 0 0 1 -33.7 113 25 25 0 0 0 41.78 27.46 256.06 256.06 0 0 0 -33.08-321.46z"/><path d="m381 232h-99v-99a25 25 0 0 0 -50 0v99h-100a25 25 0 0 0 0 50h100v100a25 25 0 0 0 50 0v-100h99a25 25 0 0 0 0-50z"/></g></svg>