<!-- icon666.com - MILLIONS vector ICONS FREE --><svg viewBox="0 0 1449.21 2136.38" xmlns="http://www.w3.org/2000/svg" xmlns:xlink="http://www.w3.org/1999/xlink"><linearGradient id="linear-gradient" gradientUnits="userSpaceOnUse" x2="2935.35" y1="1068.19" y2="1068.19"><stop offset="0" stop-color="#ffc107"/><stop offset="1" stop-color="#ff8a65"/></linearGradient><g id="Layer_2" data-name="Layer 2"><g id="Layer_1-2" data-name="Layer 1"><path d="m1449.21 1068.19c0 590-279.55 1068.19-624.41 1068.19h-200.39c344.81 0 624.35-478.23 624.35-1068.19s-279.54-1068.19-624.35-1068.19h200.39c344.86 0 624.41 478.23 624.41 1068.19z" fill="#ffc107"/><ellipse cx="624.38" cy="1068.19" fill="url(#linear-gradient)" rx="624.38" ry="1068.19"/><ellipse cx="624.38" cy="1068.19" fill="#ffd54f" rx="374.49" ry="640.67"/><g fill="#ffb300"><path d="m1177.78 1949.45a698.85 698.85 0 0 1 -50.42 53.41h-200.44a679.69 679.69 0 0 0 50.42-53.41z"/><path d="m1349.81 1646.78q-10.33 27.32-21.57 53.41h-200.45q11.22-26.13 21.53-53.41z"/><path d="m1428.17 1344.16c-2.78 18-5.88 35.78-9.19 53.41h-200.45c3.31-17.63 6.41-35.41 9.19-53.41z"/><path d="m1449.21 1068.19c0 8.92 0 17.84-.21 26.71h-200.45c.16-8.87.21-17.79.21-26.71s0-17.84-.21-26.7h200.45c.16 8.86.21 17.78.21 26.7z"/><path d="m1428.17 792.23h-200.45c-2.78-18-5.88-35.79-9.19-53.41h200.47c3.29 17.62 6.39 35.41 9.17 53.41z"/><path d="m1349.81 489.61h-200.49q-10.26-27.32-21.53-53.41h200.45q11.3 26.12 21.57 53.41z"/><path d="m1177.78 186.94h-200.44a679.69 679.69 0 0 0 -50.42-53.41h200.44a698.85 698.85 0 0 1 50.42 53.41z"/></g></g></g></svg>