<!-- icon666.com - MILLIONS vector ICONS FREE --><svg id="Layer_3" enable-background="new 0 0 60 60" viewBox="0 0 60 60" xmlns="http://www.w3.org/2000/svg"><path d="m29.6765137 10.3425903c-.2841187.1341553-.4577026.4103394-.4577026.7180786v1.8386841c-9.0748901.4182129-16.3347778 7.930603-16.3347778 17.1001587 0 1.2468262.1342163 2.4857178.4024658 3.6693726.0789185.3551636.4024658.6155396.7655029.6155396h.0078735c.3708496-.0079346.6865234-.260376.7654419-.6234131 1.4835205-6.8258667 7.4571533-11.8525391 14.3934937-12.2076416v1.7991943c0 .3077393.173584.5918579.4577026.7180786.2840576.1262817.607605.0789185.8443604-.1183472l7.0704346-6.1077881c.173645-.1499023.2761841-.3629761.2761841-.5997314 0-.2288208-.1025391-.4418945-.2761841-.5917969l-7.0704346-6.092041c-.2367554-.1972656-.5682374-.2446289-.8443604-.1183472z"/><path d="m30.3235474 36.0283813c-.2761841-.1262817-.607605-.0789795-.8443604.1262207l-7.0704956 6.0999146c-.173584.1499023-.2682495.3708496-.2682495.5996704 0 .2288818.0946655.4498291.2682495.5997314l7.0784302 6.0841064c.1420288.1262818.3234863.1893922.5128784.1893922.1104736 0 .2209473-.0236206.3235474-.0709839.2841187-.1262817.4655762-.4103394.4655762-.7181396v-1.838623c9.0748291-.4103394 16.3268433-7.9227295 16.3268433-17.1001587 0-1.2468262-.1341553-2.4778442-.3945923-3.661499-.086792-.3629761-.4024658-.6155396-.7733154-.6155396s-.694397.260437-.7733154.6234131c-1.475647 6.8258667-7.4571533 11.8446655-14.3856201 12.1997681v-1.7991944c-.0000002-.3077393-.1814577-.5839844-.4655763-.7180787z"/></svg>