<!-- icon666.com - MILLIONS vector ICONS FREE --><svg version="1.1" id="Capa_1" xmlns="http://www.w3.org/2000/svg" xmlns:xlink="http://www.w3.org/1999/xlink" x="0px" y="0px" viewBox="0 0 512 512" style="enable-background:new 0 0 512 512;" xml:space="preserve"><g><g><g><path d="M256,127.95c-70.576,0-128,57.424-128,128s57.424,128,128,128s128-57.424,128-128C384,185.374,326.576,127.95,256,127.95 z M256,367.95c-61.76,0-112-50.24-112-112c0-61.76,50.24-112,112-112s112,50.24,112,112S317.76,367.95,256,367.95z"></path><path d="M256,207.95c-26.472,0-48,21.528-48,48c0,26.472,21.528,48,48,48s48-21.528,48-48C304,229.478,282.472,207.95,256,207.95 z M256,287.95c-17.648,0-32-14.352-32-32c0-17.648,14.352-32,32-32s32,14.352,32,32S273.648,287.95,256,287.95z"></path><path d="M250.311,109.573c0.201,0.204,0.413,0.396,0.636,0.578c0.019,0.016,0.04,0.029,0.059,0.044 c0.184,0.148,0.374,0.289,0.571,0.42c0.06,0.04,0.124,0.074,0.185,0.112c0.159,0.1,0.319,0.198,0.486,0.287 c0.076,0.041,0.155,0.074,0.232,0.112c0.156,0.077,0.313,0.154,0.475,0.22c0.083,0.034,0.168,0.061,0.251,0.092 c0.16,0.06,0.319,0.12,0.483,0.169c0.093,0.028,0.188,0.048,0.281,0.072c0.157,0.041,0.312,0.084,0.472,0.116 c0.122,0.024,0.246,0.038,0.369,0.056c0.133,0.02,0.265,0.045,0.4,0.058c0.262,0.026,0.525,0.04,0.788,0.04 s0.526-0.014,0.788-0.04c0.137-0.013,0.27-0.038,0.405-0.059c0.122-0.018,0.244-0.032,0.364-0.056 c0.161-0.032,0.317-0.075,0.475-0.116c0.093-0.024,0.187-0.044,0.28-0.072c0.164-0.049,0.323-0.109,0.482-0.169 c0.084-0.031,0.169-0.058,0.253-0.092c0.162-0.067,0.318-0.143,0.474-0.22c0.077-0.038,0.156-0.072,0.233-0.112 c0.167-0.089,0.327-0.188,0.487-0.288c0.061-0.038,0.124-0.072,0.184-0.112c0.199-0.132,0.39-0.275,0.576-0.424 c0.018-0.014,0.037-0.026,0.054-0.041c0.222-0.181,0.435-0.374,0.636-0.578l39.967-39.967c3.128-3.128,3.128-8.184,0-11.312 c-3.128-3.128-8.184-3.128-11.312,0L264,84.638V31.95c0-4.416-3.576-8-8-8s-8,3.584-8,8v52.688l-26.344-26.344 c-3.128-3.128-8.184-3.128-11.312,0c-3.128,3.128-3.128,8.184,0,11.312L250.311,109.573z"></path><path d="M261.689,402.327c-0.201-0.203-0.412-0.395-0.634-0.576c-0.03-0.024-0.062-0.045-0.092-0.069 c-0.173-0.137-0.35-0.271-0.535-0.394c-0.08-0.053-0.163-0.099-0.245-0.149c-0.139-0.085-0.277-0.172-0.421-0.249 c-0.106-0.057-0.215-0.104-0.322-0.155c-0.125-0.06-0.249-0.122-0.378-0.176c-0.125-0.052-0.253-0.094-0.381-0.139 c-0.116-0.041-0.231-0.086-0.35-0.123c-0.15-0.046-0.302-0.08-0.454-0.117c-0.1-0.024-0.198-0.053-0.299-0.073 c-0.212-0.043-0.426-0.072-0.64-0.098c-0.043-0.005-0.086-0.014-0.129-0.019c-0.538-0.055-1.08-0.055-1.618,0 c-0.044,0.004-0.086,0.014-0.13,0.019c-0.214,0.025-0.427,0.055-0.639,0.097c-0.102,0.02-0.2,0.049-0.3,0.073 c-0.151,0.037-0.303,0.071-0.452,0.116c-0.119,0.036-0.234,0.082-0.352,0.123c-0.127,0.045-0.254,0.087-0.379,0.139 c-0.129,0.054-0.253,0.116-0.379,0.176c-0.107,0.051-0.216,0.099-0.322,0.155c-0.144,0.077-0.282,0.164-0.421,0.249 c-0.081,0.05-0.165,0.095-0.245,0.149c-0.185,0.123-0.361,0.256-0.535,0.394c-0.03,0.024-0.062,0.044-0.092,0.069 c-0.221,0.181-0.433,0.373-0.634,0.576l-39.967,39.967c-3.128,3.128-3.128,8.184,0,11.312s8.184,3.128,11.312,0L248,427.262 v52.688c0,4.416,3.576,8,8,8s8-3.584,8-8v-52.688l26.344,26.344c1.56,1.56,3.608,2.344,5.656,2.344 c2.048,0,4.096-0.784,5.656-2.344c3.128-3.128,3.128-8.184,0-11.312L261.689,402.327z"></path><path d="M480,247.95h-52.688l26.344-26.344c3.128-3.128,3.128-8.184,0-11.312c-3.128-3.128-8.184-3.128-11.312,0l-39.969,39.969 c-0.203,0.201-0.395,0.412-0.575,0.633c-0.023,0.029-0.043,0.06-0.066,0.089c-0.138,0.174-0.272,0.352-0.395,0.538 c-0.057,0.085-0.104,0.173-0.157,0.259c-0.082,0.134-0.166,0.267-0.24,0.406c-0.06,0.112-0.11,0.227-0.164,0.341 c-0.057,0.12-0.116,0.237-0.167,0.36c-0.054,0.131-0.099,0.265-0.146,0.399c-0.039,0.11-0.082,0.219-0.116,0.332 c-0.047,0.156-0.083,0.314-0.121,0.472c-0.022,0.094-0.05,0.186-0.069,0.282c-0.044,0.217-0.075,0.436-0.1,0.656 c-0.004,0.038-0.013,0.075-0.016,0.114c-0.055,0.538-0.055,1.08,0,1.618c0.004,0.038,0.012,0.075,0.016,0.113 c0.025,0.22,0.056,0.439,0.1,0.657c0.019,0.095,0.046,0.187,0.069,0.28c0.038,0.158,0.074,0.317,0.122,0.473 c0.034,0.112,0.077,0.22,0.116,0.33c0.047,0.134,0.092,0.269,0.146,0.4c0.051,0.122,0.11,0.239,0.166,0.358 c0.054,0.115,0.105,0.23,0.165,0.343c0.074,0.138,0.157,0.27,0.239,0.403c0.053,0.087,0.102,0.176,0.159,0.262 c0.123,0.185,0.257,0.363,0.395,0.536c0.023,0.029,0.043,0.06,0.067,0.089c0.18,0.221,0.372,0.432,0.574,0.632l39.97,39.97 c1.56,1.56,3.608,2.344,5.656,2.344c2.048,0,4.096-0.784,5.656-2.344c3.128-3.128,3.128-8.184,0-11.312l-26.344-26.344H480 c4.424,0,8-3.584,8-8C488,251.534,484.424,247.95,480,247.95z"></path><path d="M110.2,261.004c0.024-0.029,0.044-0.06,0.067-0.089c0.138-0.174,0.271-0.351,0.395-0.536 c0.057-0.086,0.106-0.175,0.159-0.262c0.081-0.133,0.165-0.265,0.239-0.403c0.06-0.112,0.111-0.228,0.165-0.343 c0.056-0.119,0.116-0.236,0.166-0.358c0.055-0.132,0.099-0.266,0.146-0.4c0.039-0.11,0.082-0.218,0.116-0.33 c0.048-0.156,0.084-0.315,0.122-0.473c0.022-0.094,0.05-0.185,0.069-0.28c0.044-0.218,0.075-0.437,0.1-0.657 c0.004-0.038,0.013-0.074,0.016-0.113c0.055-0.538,0.055-1.08,0-1.618c-0.004-0.038-0.012-0.075-0.016-0.114 c-0.025-0.22-0.056-0.438-0.1-0.656c-0.019-0.095-0.046-0.188-0.069-0.282c-0.038-0.158-0.074-0.316-0.121-0.472 c-0.034-0.113-0.077-0.221-0.116-0.332c-0.047-0.133-0.091-0.267-0.146-0.399c-0.051-0.123-0.111-0.24-0.167-0.36 c-0.054-0.114-0.104-0.229-0.164-0.341c-0.074-0.139-0.158-0.272-0.24-0.406c-0.053-0.086-0.101-0.174-0.157-0.259 c-0.124-0.186-0.257-0.363-0.395-0.538c-0.023-0.029-0.043-0.06-0.066-0.089c-0.18-0.221-0.372-0.432-0.575-0.633l-39.969-39.969 c-3.128-3.128-8.184-3.128-11.312,0s-3.128,8.184,0,11.312l26.344,26.344H32c-4.424,0-8,3.584-8,8c0,4.416,3.576,8,8,8h52.688 l-26.344,26.344c-3.128,3.128-3.128,8.184,0,11.312c1.56,1.56,3.608,2.344,5.656,2.344s4.096-0.784,5.656-2.344l39.97-39.97 C109.828,261.436,110.02,261.225,110.2,261.004z"></path><path d="M355.521,149.279c0.004,0.038,0.012,0.075,0.016,0.114c0.025,0.22,0.056,0.439,0.1,0.656 c0.019,0.095,0.046,0.187,0.069,0.28c0.038,0.158,0.074,0.317,0.122,0.473c0.034,0.112,0.077,0.221,0.116,0.331 c0.047,0.134,0.091,0.268,0.146,0.399c0.051,0.122,0.11,0.24,0.167,0.359c0.054,0.114,0.105,0.23,0.165,0.342 c0.074,0.138,0.157,0.27,0.239,0.403c0.053,0.087,0.102,0.176,0.159,0.262c0.123,0.185,0.257,0.363,0.395,0.536 c0.023,0.029,0.043,0.06,0.067,0.089c0.343,0.42,0.727,0.804,1.147,1.147c0.018,0.015,0.037,0.027,0.055,0.041 c0.185,0.149,0.376,0.291,0.575,0.423c0.061,0.041,0.125,0.075,0.187,0.114c0.159,0.099,0.318,0.198,0.484,0.286 c0.077,0.041,0.156,0.074,0.233,0.112c0.156,0.077,0.312,0.153,0.473,0.22c0.084,0.035,0.17,0.062,0.255,0.093 c0.159,0.059,0.317,0.119,0.48,0.168c0.093,0.028,0.188,0.048,0.281,0.072c0.157,0.041,0.312,0.084,0.472,0.116 c0.122,0.024,0.246,0.038,0.369,0.056c0.133,0.02,0.265,0.045,0.4,0.058c0.262,0.026,0.525,0.04,0.788,0.04h56.568 c4.424,0,8-3.584,8-8s-3.576-8-8-8h-37.256l54.224-54.224c3.128-3.128,3.128-8.184,0-11.312c-3.128-3.128-8.184-3.128-11.312,0 l-54.224,54.224V91.902c0-4.416-3.576-8-8-8s-8,3.584-8,8v56.526C355.479,148.712,355.492,148.996,355.521,149.279z"></path><path d="M156.479,362.621c-0.004-0.038-0.012-0.075-0.016-0.113c-0.025-0.22-0.056-0.439-0.1-0.657 c-0.019-0.095-0.046-0.187-0.069-0.28c-0.038-0.158-0.074-0.317-0.122-0.473c-0.034-0.112-0.077-0.22-0.116-0.331 c-0.047-0.134-0.092-0.268-0.146-0.4c-0.051-0.122-0.11-0.24-0.167-0.359c-0.054-0.114-0.105-0.23-0.165-0.342 c-0.074-0.138-0.157-0.27-0.239-0.403c-0.053-0.087-0.102-0.176-0.159-0.262c-0.123-0.185-0.257-0.363-0.395-0.536 c-0.023-0.029-0.043-0.06-0.067-0.089c-0.342-0.42-0.726-0.804-1.146-1.146c-0.029-0.023-0.059-0.043-0.088-0.066 c-0.175-0.139-0.353-0.273-0.539-0.396c-0.08-0.053-0.163-0.099-0.245-0.149c-0.139-0.086-0.277-0.172-0.421-0.249 c-0.105-0.056-0.213-0.103-0.32-0.154c-0.127-0.06-0.251-0.123-0.382-0.177c-0.124-0.052-0.251-0.093-0.377-0.138 c-0.117-0.042-0.233-0.087-0.352-0.123c-0.15-0.046-0.302-0.08-0.454-0.117c-0.1-0.024-0.198-0.053-0.299-0.073 c-0.212-0.043-0.425-0.072-0.639-0.097c-0.044-0.005-0.086-0.014-0.13-0.019c-0.283-0.029-0.567-0.042-0.851-0.041H91.952 c-4.424,0-8,3.584-8,8c0,4.416,3.576,8,8,8h37.256l-54.224,54.224c-3.128,3.128-3.128,8.184,0,11.312 c1.56,1.56,3.608,2.344,5.656,2.344c2.048,0,4.096-0.776,5.656-2.344l54.224-54.224v37.256c0,4.416,3.576,8,8,8s8-3.584,8-8 v-56.526C156.521,363.188,156.508,362.904,156.479,362.621z"></path><path d="M382.792,371.43h37.256c4.424,0,8-3.584,8-8c0-4.416-3.576-8-8-8h-56.526c-0.284-0.001-0.568,0.012-0.852,0.041 c-0.041,0.004-0.08,0.013-0.121,0.017c-0.217,0.025-0.434,0.056-0.648,0.099c-0.1,0.02-0.196,0.048-0.294,0.072 c-0.153,0.037-0.307,0.072-0.458,0.118c-0.119,0.036-0.234,0.081-0.351,0.123c-0.127,0.045-0.254,0.087-0.379,0.139 c-0.129,0.053-0.252,0.116-0.377,0.175c-0.108,0.052-0.218,0.099-0.324,0.156c-0.143,0.076-0.279,0.162-0.417,0.247 c-0.083,0.051-0.167,0.097-0.249,0.151c-0.185,0.123-0.362,0.256-0.535,0.393c-0.03,0.024-0.062,0.044-0.092,0.069 c-0.419,0.342-0.803,0.726-1.145,1.145c-0.025,0.031-0.046,0.064-0.071,0.095c-0.136,0.172-0.268,0.347-0.39,0.531 c-0.058,0.087-0.107,0.178-0.162,0.266c-0.081,0.132-0.163,0.262-0.236,0.399c-0.061,0.113-0.112,0.23-0.166,0.345 c-0.056,0.118-0.115,0.234-0.165,0.356c-0.055,0.133-0.1,0.268-0.147,0.403c-0.038,0.109-0.081,0.216-0.115,0.327 c-0.048,0.158-0.085,0.318-0.123,0.479c-0.022,0.092-0.049,0.182-0.067,0.275c-0.044,0.22-0.076,0.442-0.101,0.664 c-0.004,0.035-0.012,0.07-0.015,0.105c-0.029,0.284-0.042,0.568-0.041,0.853v56.525c0,4.416,3.576,8,8,8c4.416,0,8-3.584,8-8 v-37.256l54.224,54.224c1.56,1.56,3.608,2.344,5.656,2.344c2.048,0,4.096-0.776,5.656-2.344c3.128-3.128,3.128-8.184,0-11.312 L382.792,371.43z"></path><path d="M129.21,140.47H91.952c-4.424,0-8,3.584-8,8s3.576,8,8,8h56.568c0.263,0,0.526-0.014,0.788-0.04 c0.138-0.013,0.273-0.039,0.409-0.059c0.12-0.018,0.24-0.031,0.359-0.055c0.17-0.034,0.335-0.079,0.501-0.123 c0.083-0.022,0.167-0.039,0.25-0.064c0.184-0.055,0.363-0.122,0.542-0.19c0.062-0.024,0.125-0.043,0.187-0.068 c0.202-0.083,0.397-0.177,0.59-0.275c0.036-0.018,0.073-0.034,0.109-0.052c1.426-0.754,2.594-1.926,3.346-3.353 c0.013-0.024,0.023-0.049,0.035-0.073c0.104-0.203,0.202-0.41,0.289-0.622c0.024-0.059,0.042-0.119,0.065-0.178 c0.068-0.179,0.135-0.359,0.191-0.544c0.028-0.094,0.048-0.19,0.073-0.285c0.04-0.152,0.082-0.304,0.112-0.459 c0.032-0.161,0.052-0.324,0.074-0.487c0.012-0.091,0.03-0.181,0.039-0.273c0.028-0.282,0.042-0.564,0.04-0.847V91.902 c0-4.416-3.576-8-8-8s-8,3.584-8,8v37.248L86.296,74.926c-3.128-3.128-8.184-3.128-11.312,0s-3.128,8.184,0,11.312L129.21,140.47 z"></path><path d="M256,15.95c2.08,0,4.16-0.888,5.68-2.32c1.44-1.52,2.32-3.6,2.32-5.68c0-2.08-0.88-4.16-2.32-5.68 c-3.04-2.96-8.4-2.96-11.36,0c-1.448,1.52-2.32,3.6-2.32,5.68c0,2.08,0.872,4.16,2.32,5.68 C251.832,15.07,253.832,15.95,256,15.95z"></path><path d="M509.68,250.27c-2.96-2.96-8.4-2.96-11.36,0c-1.448,1.52-2.32,3.52-2.32,5.68c0,2.08,0.872,4.16,2.32,5.68 c1.512,1.44,3.6,2.32,5.68,2.32c2.08,0,4.16-0.888,5.68-2.32c1.44-1.52,2.32-3.6,2.32-5.68 C512,253.87,511.12,251.79,509.68,250.27z"></path><path d="M250.32,498.27c-1.448,1.52-2.32,3.6-2.32,5.68c0,2.08,0.872,4.16,2.32,5.6c1.44,1.52,3.512,2.4,5.68,2.4 c2.16,0,4.16-0.888,5.68-2.32c1.44-1.52,2.32-3.6,2.32-5.68c0-2.08-0.88-4.16-2.32-5.68 C258.64,495.31,253.28,495.31,250.32,498.27z"></path><path d="M2.32,250.27c-1.448,1.52-2.32,3.6-2.32,5.68c0,2.16,0.872,4.16,2.32,5.68c1.512,1.44,3.512,2.32,5.68,2.32 c2.16,0,4.16-0.888,5.68-2.32c1.44-1.52,2.32-3.6,2.32-5.68c0-2.08-0.88-4.16-2.32-5.68C10.64,247.31,5.28,247.31,2.32,250.27z"></path></g></g></g></svg>