<!-- icon666.com - MILLIONS vector ICONS FREE --><svg id="Bahan_copy_2" viewBox="0 0 64 64" xmlns="http://www.w3.org/2000/svg" data-name="Bahan copy 2"><g fill="rgb(0,0,0)"><path d="m28.57959 15.62012a1.00005 1.00005 0 0 0 1-1v-6.19971a1 1 0 0 0 -2 0v6.19971a1.00005 1.00005 0 0 0 1 1z"></path><path d="m41.57617 43.58252a1.00008 1.00008 0 0 0 -1.414 1.4141l4.38374 4.38375a.99988.99988 0 1 0 1.414-1.41407z"></path><path d="m28.57959 48.37988a1.00005 1.00005 0 0 0 -1 1v6.19971a1 1 0 0 0 2 0v-6.19971a1.00005 1.00005 0 0 0 -1-1z"></path><path d="m15.583 43.58252-4.38379 4.38379a.99989.99989 0 1 0 1.41406 1.41406l4.38379-4.38379a1.00008 1.00008 0 0 0 -1.41406-1.41406z"></path><path d="m12.19971 32a1.00005 1.00005 0 0 0 -1-1h-6.19971a1 1 0 0 0 0 2h6.19971a1.00005 1.00005 0 0 0 1-1z"></path><path d="m15.583 20.41748a1.00008 1.00008 0 0 0 1.414-1.4141l-4.38374-4.38375a1.00008 1.00008 0 0 0 -1.414 1.4141z"></path><path d="m59.71 31.57a1.00456 1.00456 0 0 0 -1.16-.19 13.51905 13.51905 0 0 1 -18.16-18.15 1.00771 1.00771 0 0 0 -1.34-1.34993c-14.52578 7.53417-9.24577 29.2491 6.98027 29.3799a15.60376 15.60376 0 0 0 13.86973-8.5401 1.005 1.005 0 0 0 -.19-1.14987z"></path><path d="m33.64 38.13a17.49713 17.49713 0 0 1 -4.47-17.1c.17-1.249 1.44489-2.26054-.59-2.0298a13.01212 13.01212 0 0 0 -13 12.9998c-.087 11.46912 14.20349 17.34845 22.18009 9.19978a18.29056 18.29056 0 0 1 -4.12009-3.06978z"></path></g></svg>