<!-- icon666.com - MILLIONS vector ICONS FREE --><svg viewBox="0 0 24 24" xmlns="http://www.w3.org/2000/svg"><g id="essentials/basics/command" fill="none" fill-rule="evenodd"><path id="Fill-60" d="m5.99948982 4.0034c-1.103 0-2 .897-2 2s.897 2 2 2h2v-2c0-1.103-.897-2-2-2zm8.99999998 4h2c1.103 0 2-.897 2-2s-.897-2-2-2-2 .897-2 2zm-5.99999998 6h4.99999998v-5h-4.99999998zm-3 1c-1.103 0-2 .897-2 2s.897 2 2 2 2-.897 2-2v-2zm8.99999998 0v2c0 1.103.897 2 2 2s2-.897 2-2-.897-2-2-2zm2 5c-1.654 0-3-1.346-3-3v-2h-4.99999998v2c0 1.654-1.346 3-3 3s-3-1.346-3-3 1.346-3 3-3h2v-5h-2c-1.654 0-3-1.346-3-3s1.346-3 3-3 3 1.346 3 3v2h4.99999998v-2c0-1.654 1.346-3 3-3s3 1.346 3 3-1.346 3-3 3h-2v5h2c1.654 0 3 1.346 3 3s-1.346 3-3 3z" fill="rgb(0,0,0)"></path></g></svg>