<!-- icon666.com - MILLIONS vector ICONS FREE --><svg viewBox="0 -7 512 511" xmlns="http://www.w3.org/2000/svg"><path d="m305.957031 2.3125c-5.546875-2.847656-12.226562-2.296875-17.277343 1.359375l-178.015626 129.464844h-94.085937c-9.15625 0-16.578125 7.414062-16.578125 16.582031v198.953125c0 9.167969 7.421875 16.582031 16.578125 16.582031h94.085937l178.015626 129.464844c2.890624 2.105469 6.316406 3.171875 9.753906 3.171875 2.566406 0 5.148437-.597656 7.523437-1.8125 5.5625-2.816406 9.058594-8.53125 9.058594-14.765625v-464.234375c0-6.234375-3.5-11.949219-9.058594-14.765625zm-24.101562 446.4375-149.21875-108.511719v-48.605469c0-9.164062-7.421875-16.578124-16.578125-16.578124s-16.582032 7.414062-16.582032 16.578124v40.460938h-66.316406v-165.796875h66.316406v39.230469c0 9.164062 7.425782 16.582031 16.582032 16.582031s16.578125-7.417969 16.578125-16.582031v-47.375l149.21875-108.511719zm0 0"></path><path d="m391.460938 452.199219c-5.789063 0-11.417969-3.027344-14.460938-8.433594-4.492188-7.984375-1.675781-18.085937 6.296875-22.585937 58.9375-33.226563 95.546875-95.753907 95.546875-163.191407 0-67.433593-36.609375-129.980469-95.546875-163.207031-7.972656-4.5-10.789063-14.605469-6.296875-22.585938 4.492188-7.980468 14.628906-10.796874 22.585938-6.296874 69.339843 39.101562 112.414062 112.707031 112.414062 192.089843 0 79.382813-43.074219 152.972657-112.414062 192.078125-2.574219 1.453125-5.367188 2.132813-8.125 2.132813zm0 0"></path><path d="m351.492188 381.136719c-5.796876 0-11.414063-3.042969-14.460938-8.433594-4.492188-7.984375-1.675781-18.101563 6.308594-22.585937 33.273437-18.75 53.9375-54.046876 53.9375-92.128907s-20.667969-73.378906-53.945313-92.144531c-7.976562-4.5-10.792969-14.601562-6.300781-22.585938 4.503906-7.980468 14.636719-10.796874 22.585938-6.296874 43.683593 24.628906 70.820312 71.015624 70.820312 121.027343 0 50.03125-27.136719 96.402344-70.828125 121.011719-2.5625 1.457031-5.367187 2.136719-8.117187 2.136719zm0 0"></path></svg>